<?xml version="1.0" standalone="no"?>
<!DOCTYPE svg PUBLIC "-//W3C//DTD SVG 1.1//EN" "http://www.w3.org/Graphics/SVG/1.1/DTD/svg11.dtd">
<svg xmlns="http://www.w3.org/2000/svg" width="300" height="406" viewBox="0 0 300 406" fill="none">
<path d="M74.3145 83.0178L74.3145 0L299.287 124.905L299.287 213.557L74.3145 83.0178Z" fill="url(#paint0_linear_2647_20099)"/>
<path d="M-1.47636e-06 277.763L0 185.648L226.967 311.891L226.967 405.746L-1.47636e-06 277.763Z" fill="url(#paint1_linear_2647_20099)"/>
<path d="M300 213.397L300 125.125L80.6515 246.101L80.6515 336.04L300 213.397Z" fill="url(#paint2_linear_2647_20099)"/>
<path d="M224.973 148.863L224.973 60.0154L-0.000139331 184.921L-0.000140783 275.516L224.973 148.863Z" fill="url(#paint3_linear_2647_20099)"/>
<defs>
<linearGradient id="paint0_linear_2647_20099" x1="299.041" y1="187.612" x2="125.737" y2="-19.5764" gradientUnits="userSpaceOnUse">
<stop stop-color="#010606"/>
<stop offset="1" stop-color="#BFA4FD"/>
</linearGradient>
<linearGradient id="paint1_linear_2647_20099" x1="27.9161" y1="247.51" x2="200.494" y2="324.689" gradientUnits="userSpaceOnUse">
<stop stop-color="#0F302C"/>
<stop offset="1" stop-color="#198F76"/>
</linearGradient>
<linearGradient id="paint2_linear_2647_20099" x1="147.538" y1="249.264" x2="147.538" y2="96.1781" gradientUnits="userSpaceOnUse">
<stop stop-color="#04E5AC"/>
<stop offset="1" stop-color="#198F76"/>
</linearGradient>
<linearGradient id="paint3_linear_2647_20099" x1="-32.8846" y1="338.899" x2="155.964" y2="126.26" gradientUnits="userSpaceOnUse">
<stop stop-color="#01E4AB"/>
<stop offset="1" stop-color="#FFB78E"/>
</linearGradient>
</defs>
</svg>