<?xml version="1.0" standalone="no"?>
<!DOCTYPE svg PUBLIC "-//W3C//DTD SVG 1.1//EN" "http://www.w3.org/Graphics/SVG/1.1/DTD/svg11.dtd">
<svg xmlns="http://www.w3.org/2000/svg" xmlns:xlink="http://www.w3.org/1999/xlink" id="Capa_1" version="1.1" viewBox="0 0 303 453" width="303" height="453">
  <!-- Generator: Adobe Illustrator 29.3.1, SVG Export Plug-In . SVG Version: 2.1.0 Build 151)  -->
  <defs>
    <style>
      .st0 {
        fill: url(#Degradado_sin_nombre);
      }

      .st1 {
        fill: url(#Degradado_sin_nombre_7);
      }

      .st2 {
        fill: url(#Degradado_sin_nombre_6);
      }

      .st3 {
        fill: url(#Degradado_sin_nombre_5);
      }

      .st4 {
        fill: url(#Degradado_sin_nombre_8);
      }

      .st5 {
        fill: url(#Degradado_sin_nombre_4);
      }

      .st6 {
        fill: url(#Degradado_sin_nombre_3);
      }

      .st7 {
        fill: url(#Degradado_sin_nombre_2);
      }
    </style>
    <linearGradient id="Degradado_sin_nombre" data-name="Degradado sin nombre" x1="193" y1="303.8" x2="652.9" y2="-672.9" gradientTransform="translate(0 454) scale(1 -1)" gradientUnits="userSpaceOnUse">
      <stop offset="0" stop-color="#ffb78e"/>
      <stop offset=".1" stop-color="#21323b"/>
    </linearGradient>
    <linearGradient id="Degradado_sin_nombre_2" data-name="Degradado sin nombre 2" x1="-154.6" y1="155.9" x2="224.9" y2="10.5" gradientTransform="translate(0 454) scale(1 -1)" gradientUnits="userSpaceOnUse">
      <stop offset="0" stop-color="#ffb78e"/>
      <stop offset=".9" stop-color="#21323b"/>
    </linearGradient>
    <linearGradient id="Degradado_sin_nombre_3" data-name="Degradado sin nombre 3" x1="331.7" y1="327.1" x2="-92.7" y2="-586.7" gradientTransform="translate(0 454) scale(1 -1)" gradientUnits="userSpaceOnUse">
      <stop offset=".2" stop-color="#ffb78e"/>
      <stop offset=".8" stop-color="#00e0a7"/>
    </linearGradient>
    <linearGradient id="Degradado_sin_nombre_4" data-name="Degradado sin nombre 4" x1="169.5" y1="508.1" x2="659.9" y2="-541.3" gradientTransform="translate(0 454) scale(1 -1)" gradientUnits="userSpaceOnUse">
      <stop offset="0" stop-color="#ffb78e"/>
      <stop offset=".2" stop-color="#21323b"/>
    </linearGradient>
    <linearGradient id="Degradado_sin_nombre_5" data-name="Degradado sin nombre 5" x1="-157.1" y1="307.5" x2="228.3" y2="159.8" gradientTransform="translate(0 454) scale(1 -1)" gradientUnits="userSpaceOnUse">
      <stop offset="0" stop-color="#ffb78e"/>
      <stop offset=".9" stop-color="#21323b"/>
    </linearGradient>
    <linearGradient id="Degradado_sin_nombre_6" data-name="Degradado sin nombre 6" x1="331.5" y1="475.7" x2="-91.4" y2="-434.8" gradientTransform="translate(0 454) scale(1 -1)" gradientUnits="userSpaceOnUse">
      <stop offset=".2" stop-color="#ffb78e"/>
      <stop offset=".8" stop-color="#00e0a7"/>
    </linearGradient>
    <linearGradient id="Degradado_sin_nombre_7" data-name="Degradado sin nombre 7" x1="12.2" y1="201" x2="276.6" y2="821.5" gradientTransform="translate(0 454) scale(1 -1)" gradientUnits="userSpaceOnUse">
      <stop offset=".2" stop-color="#ffb78e"/>
      <stop offset=".8" stop-color="#00e0a7"/>
    </linearGradient>
    <linearGradient id="Degradado_sin_nombre_8" data-name="Degradado sin nombre 8" x1="-9.4" y1="3" x2="279.4" y2="667.3" gradientTransform="translate(0 454) scale(1 -1)" gradientUnits="userSpaceOnUse">
      <stop offset=".2" stop-color="#ffb78e"/>
      <stop offset=".8" stop-color="#00e0a7"/>
    </linearGradient>
  </defs>
  <path class="st0" d="M147.7,194.3l46.2-41.4,109.3,91.3-36,48.2-119.5-98.1Z"/>
  <path class="st7" d="M0,359.3l40.2-42.5,112.1,95.4-45,42.2L0,359.3Z"/>
  <path class="st6" d="M107,454.4l196-210.2v100.7l-97.8,110-98.1-.6Z"/>
  <path class="st5" d="M150.9,42.5L193.8.6l109.4,94.8-36,48.2-116.3-101.1Z"/>
  <path class="st3" d="M0,208.6l39.4-43.2,114.5,99.1-45.9,40.1L0,208.6Z"/>
  <path class="st2" d="M107.4,304.5l195.6-209.3v100.8s-97.4,109-97.4,109l-98.1-.6Z"/>
  <path class="st1" d="M193.9.6L0,208.5v-100.9S100.7,0,100.7,0l93.2.6Z"/>
  <path class="st4" d="M193.9,152.9L0,360v-100.1s95.7-107.6,95.7-107.6l98.2.6Z"/>
</svg>