<?xml version="1.0" standalone="no"?>
<!DOCTYPE svg PUBLIC "-//W3C//DTD SVG 1.1//EN" "http://www.w3.org/Graphics/SVG/1.1/DTD/svg11.dtd">
<svg xmlns="http://www.w3.org/2000/svg" width="2739" height="1737" viewBox="0 0 2739 1737" fill="none">
<path d="M203.652 1692.06L435.291 1333.35L345.971 1356.59L125.721 1692.06L164.687 1692.06L203.652 1692.06Z" fill="url(#paint0_linear_2647_21209)"/>
<path d="M817.657 1477.39L431.492 1318.57L346.295 1355.63L748.94 1521.37L817.657 1477.39Z" fill="url(#paint1_linear_2647_21209)"/>
<path d="M992.169 1055.98L747.698 1521.63L841.683 1463.87L1068.02 1043.3L992.169 1055.98Z" fill="url(#paint2_linear_2647_21209)"/>
<path d="M1755.06 972.59L1140.26 1002.9L992.311 1055.17L1674.38 1040.99L1755.06 972.59Z" fill="url(#paint3_linear_2647_21209)"/>
<path d="M1864.03 570.696L1670.66 1042.94L1765.88 961.754L1952.05 522.305L1864.03 570.696Z" fill="url(#paint4_linear_2647_21209)"/>
<path d="M2432.63 466.788L1939.78 507.755L1863.1 572.168L2354.7 529.567L2432.63 466.788Z" fill="url(#paint5_linear_2647_21209)"/>
<path d="M2496.4 29.5029L2348.93 530.478L2429.92 477.046L2561.34 29.5029L2496.4 29.5029Z" fill="url(#paint6_linear_2647_21209)"/>
<defs>
<linearGradient id="paint0_linear_2647_21209" x1="414.69" y1="1316.9" x2="329.413" y2="1656.64" gradientUnits="userSpaceOnUse">
<stop stop-color="#1E2634"/>
<stop offset="0.353675" stop-color="#218475"/>
<stop offset="1" stop-color="#C4A3FF"/>
</linearGradient>
<linearGradient id="paint1_linear_2647_21209" x1="437.379" y1="1374.6" x2="819.822" y2="1447.66" gradientUnits="userSpaceOnUse">
<stop stop-color="#24E2B5"/>
<stop offset="1" stop-color="#1E2634"/>
</linearGradient>
<linearGradient id="paint2_linear_2647_21209" x1="1032.09" y1="1056.23" x2="805.72" y2="1469.02" gradientUnits="userSpaceOnUse">
<stop stop-color="#135A4F"/>
<stop offset="0.5" stop-color="#6DC7D6"/>
<stop offset="1" stop-color="#A5B1EF"/>
</linearGradient>
<linearGradient id="paint3_linear_2647_21209" x1="1079.42" y1="1073.73" x2="2124.78" y2="1270.93" gradientUnits="userSpaceOnUse">
<stop stop-color="#24E2B5"/>
<stop offset="1" stop-color="#1E2634"/>
</linearGradient>
<linearGradient id="paint4_linear_2647_21209" x1="1965.77" y1="499.259" x2="1784.91" y2="986.718" gradientUnits="userSpaceOnUse">
<stop stop-color="#042721"/>
<stop offset="0.597768" stop-color="#6DC7D6"/>
<stop offset="1" stop-color="#A5B1EF"/>
</linearGradient>
<linearGradient id="paint5_linear_2647_21209" x1="1965.32" y1="596.809" x2="2661.51" y2="404.022" gradientUnits="userSpaceOnUse">
<stop stop-color="#24E2B5"/>
<stop offset="1" stop-color="#1E2634"/>
</linearGradient>
<linearGradient id="paint6_linear_2647_21209" x1="2633.33" y1="69.403" x2="2406.96" y2="482.194" gradientUnits="userSpaceOnUse">
<stop stop-color="#135A4F"/>
<stop offset="0.5" stop-color="#6DC7D6"/>
<stop offset="1" stop-color="#A5B1EF"/>
</linearGradient>
</defs>
</svg>