<?xml version="1.0" standalone="no"?>
<!DOCTYPE svg PUBLIC "-//W3C//DTD SVG 1.1//EN" "http://www.w3.org/Graphics/SVG/1.1/DTD/svg11.dtd">
<svg xmlns="http://www.w3.org/2000/svg" width="4377" height="655" viewBox="0 0 4377 655" fill="none">
<path d="M943 316.605L0 235.578V317.197L943 402.289V316.605Z" fill="url(#paint0_linear_2647_19987)"/>
<path d="M3832.5 327.197L2476.5 245.594L2513 327.594L3832.5 412.88V327.197Z" fill="url(#paint1_linear_2647_19987)"/>
<path d="M1744.34 236.383L1306.91 263.595L1306.91 281.063L1744.34 254.074L1744.34 236.383Z" fill="url(#paint2_linear_2647_19987)"/>
<path d="M4339 258.38L4240.6 268.603L4240.6 286.071L4339 276.071L4339 258.38Z" fill="url(#paint3_linear_2647_19987)"/>
<path d="M1933.5 255.576L942.999 316.589L943 403.594L1933.5 336.533L1933.5 255.576Z" fill="url(#paint4_linear_2647_19987)"/>
<path d="M4339 291.576L3832 327.091L3832 413.591L4339 372.533L4339 291.576Z" fill="url(#paint5_linear_2647_19987)"/>
<path d="M2476.68 245.521L1679 470.597L1679 551.594L2514 327.06L2476.68 245.521Z" fill="url(#paint6_linear_2647_19987)"/>
<path d="M1933.5 255.574L1675.82 454.649L1675.82 553.588L1933.5 356.575L1933.5 255.574Z" fill="url(#paint7_linear_2647_19987)"/>
<path d="M855 275.031L612 254.578V272.697L855 294.215V275.031Z" fill="url(#paint8_linear_2647_19987)"/>
<path d="M3065 378.031L2824 362.578V380.697L3065 397.215V378.031Z" fill="url(#paint9_linear_2647_19987)"/>
<defs>
<linearGradient id="paint0_linear_2647_19987" x1="878.5" y1="318.578" x2="-177" y2="211.578" gradientUnits="userSpaceOnUse">
<stop stop-color="#57453A"/>
<stop offset="0.306067" stop-color="#FFB68D"/>
<stop offset="1" stop-color="#00E7AE"/>
</linearGradient>
<linearGradient id="paint1_linear_2647_19987" x1="3768" y1="362.078" x2="2386" y2="245.578" gradientUnits="userSpaceOnUse">
<stop stop-color="#C3A4FC"/>
<stop offset="0.486126" stop-color="#04E5AC"/>
<stop offset="1" stop-color="#242836"/>
</linearGradient>
<linearGradient id="paint2_linear_2647_19987" x1="1313.21" y1="321.953" x2="1736.38" y2="201.438" gradientUnits="userSpaceOnUse">
<stop stop-color="#C4A3FF"/>
<stop offset="1" stop-color="#00E7AE"/>
</linearGradient>
<linearGradient id="paint3_linear_2647_19987" x1="4052" y1="344.578" x2="4450.5" y2="302.578" gradientUnits="userSpaceOnUse">
<stop stop-color="#C4A3FF"/>
<stop offset="1" stop-color="#00E7AE"/>
</linearGradient>
<linearGradient id="paint4_linear_2647_19987" x1="1750" y1="182.252" x2="1188.01" y2="426.736" gradientUnits="userSpaceOnUse">
<stop stop-color="#00E7AE"/>
<stop offset="0.55" stop-color="#FFB68D"/>
<stop offset="1" stop-color="#936347"/>
</linearGradient>
<linearGradient id="paint5_linear_2647_19987" x1="4168" y1="337.578" x2="4723" y2="241.578" gradientUnits="userSpaceOnUse">
<stop stop-color="#C3A4FC"/>
<stop offset="0.55" stop-color="#04E5AC"/>
<stop offset="1" stop-color="#242836"/>
</linearGradient>
<linearGradient id="paint6_linear_2647_19987" x1="2555" y1="320.578" x2="1628.99" y2="745.155" gradientUnits="userSpaceOnUse">
<stop stop-color="#242836"/>
<stop offset="0.202134" stop-color="#04E5AC"/>
<stop offset="1" stop-color="#242D38"/>
</linearGradient>
<linearGradient id="paint7_linear_2647_19987" x1="1939.5" y1="304.578" x2="1623.75" y2="606.988" gradientUnits="userSpaceOnUse">
<stop stop-color="#C4A3FF"/>
<stop offset="0.55" stop-color="#2AE8B0"/>
<stop offset="1" stop-color="#936347"/>
</linearGradient>
<linearGradient id="paint8_linear_2647_19987" x1="415" y1="235.215" x2="855" y2="303.215" gradientUnits="userSpaceOnUse">
<stop stop-color="#00E7AE"/>
<stop offset="1" stop-color="#C4A3FF"/>
</linearGradient>
<linearGradient id="paint9_linear_2647_19987" x1="3101.5" y1="389.578" x2="2822" y2="378.578" gradientUnits="userSpaceOnUse">
<stop stop-color="#00E7AE"/>
<stop offset="1" stop-color="#FFB78E"/>
</linearGradient>
</defs>
</svg>