<?xml version="1.0" standalone="no"?>
<!DOCTYPE svg PUBLIC "-//W3C//DTD SVG 1.1//EN" "http://www.w3.org/Graphics/SVG/1.1/DTD/svg11.dtd">
<svg xmlns="http://www.w3.org/2000/svg" width="13791" height="2078" viewBox="0 0 13791 2078" fill="none">
<path d="M13775.9 821.087L13463.5 853.54L13463.5 908.998L13775.9 877.25L13775.9 821.087Z" fill="url(#paint0_linear_2695_27401)"/>
<path d="M13775.9 926.477L12166.3 1039.23L12166.3 1313.85L13775.9 1183.5L13775.9 926.477Z" fill="url(#paint1_linear_2695_27401)"/>
<path d="M2994.43 1005.95L0.634766 748.711V1007.83L2994.43 1277.98V1005.95Z" fill="url(#paint2_linear_2695_27401)"/>
<path d="M12167.9 1039.56L7862.91 780.492L7978.79 1040.82L12167.9 1311.59V1039.56Z" fill="url(#paint3_linear_2695_27401)"/>
<path d="M5538.5 751.258L4149.75 837.649L4149.74 893.107L5538.5 807.422L5538.5 751.258Z" fill="url(#paint4_linear_2695_27401)"/>
<path d="M6139.02 812.191L2994.42 1005.89L2994.43 1282.11L6139.02 1069.21L6139.02 812.191Z" fill="url(#paint5_linear_2695_27401)"/>
<path d="M7863.48 780.271L5331.04 1494.83L5331.04 1751.98L7981.96 1039.14L7863.48 780.271Z" fill="url(#paint6_linear_2695_27401)"/>
<path d="M6139.02 812.192L5320.95 1444.2L5320.94 1758.31L6139.02 1132.84L6139.02 812.192Z" fill="url(#paint7_linear_2695_27401)"/>
<path d="M2715.05 873.957L1943.58 809.023V866.546L2715.05 934.86V873.957Z" fill="url(#paint8_linear_2695_27401)"/>
<path d="M9731.25 1200.95L8966.14 1151.89V1209.41L9731.25 1261.85V1200.95Z" fill="url(#paint9_linear_2695_27401)"/>
<defs>
<linearGradient id="paint0_linear_2695_27401" x1="12864.7" y1="1094.74" x2="14129.9" y2="961.403" gradientUnits="userSpaceOnUse">
<stop stop-color="#C4A3FF"/>
<stop offset="1" stop-color="#00E7AE"/>
</linearGradient>
<linearGradient id="paint1_linear_2695_27401" x1="13233" y1="1072.53" x2="14995" y2="767.752" gradientUnits="userSpaceOnUse">
<stop stop-color="#C3A4FC"/>
<stop offset="0.55" stop-color="#04E5AC"/>
<stop offset="1" stop-color="#242836"/>
</linearGradient>
<linearGradient id="paint2_linear_2695_27401" x1="2789.66" y1="1012.22" x2="-561.297" y2="672.517" gradientUnits="userSpaceOnUse">
<stop stop-color="#57453A"/>
<stop offset="0.306067" stop-color="#FFB68D"/>
<stop offset="1" stop-color="#00E7AE"/>
</linearGradient>
<linearGradient id="paint3_linear_2695_27401" x1="11963.1" y1="1150.3" x2="7575.6" y2="780.441" gradientUnits="userSpaceOnUse">
<stop stop-color="#C3A4FC"/>
<stop offset="0.486126" stop-color="#04E5AC"/>
<stop offset="1" stop-color="#242836"/>
</linearGradient>
<linearGradient id="paint4_linear_2695_27401" x1="4169.75" y1="1022.92" x2="5513.23" y2="640.317" gradientUnits="userSpaceOnUse">
<stop stop-color="#C4A3FF"/>
<stop offset="1" stop-color="#00E7AE"/>
</linearGradient>
<linearGradient id="paint5_linear_2695_27401" x1="5556.45" y1="579.406" x2="3772.29" y2="1355.58" gradientUnits="userSpaceOnUse">
<stop stop-color="#00E7AE"/>
<stop offset="0.55" stop-color="#FFB68D"/>
<stop offset="1" stop-color="#936347"/>
</linearGradient>
<linearGradient id="paint6_linear_2695_27401" x1="8112.13" y1="1018.56" x2="5172.28" y2="2366.49" gradientUnits="userSpaceOnUse">
<stop stop-color="#242836"/>
<stop offset="0.202134" stop-color="#04E5AC"/>
<stop offset="1" stop-color="#242D38"/>
</linearGradient>
<linearGradient id="paint7_linear_2695_27401" x1="6158.07" y1="967.766" x2="5155.63" y2="1927.84" gradientUnits="userSpaceOnUse">
<stop stop-color="#C4A3FF"/>
<stop offset="0.55" stop-color="#2AE8B0"/>
<stop offset="1" stop-color="#936347"/>
</linearGradient>
<linearGradient id="paint8_linear_2695_27401" x1="1318.16" y1="747.55" x2="2715.05" y2="963.433" gradientUnits="userSpaceOnUse">
<stop stop-color="#00E7AE"/>
<stop offset="1" stop-color="#C4A3FF"/>
</linearGradient>
<linearGradient id="paint9_linear_2695_27401" x1="9847.13" y1="1237.61" x2="8959.79" y2="1202.69" gradientUnits="userSpaceOnUse">
<stop stop-color="#00E7AE"/>
<stop offset="1" stop-color="#FFB78E"/>
</linearGradient>
</defs>
</svg>